# Wavefront OBJ file
# Exported by Maverick Model 3D 1.3.13
# Thu Jan 30 15:47:53 2025

# 16 Vertices
v -7.394007 -0.144796 12.246196
v 8.202631 -0.144796 12.246196
v -4.933419 7.775565 7.798319
v 5.493988 8.021719 7.798319
v 8.202631 -0.144797 -11.751987
v -7.394007 -0.144797 -11.751987
v 5.493988 8.021719 -7.798319
v -4.933419 7.775565 -7.798319
v -10.557724 -8.067227 15.999999
v 10.857659 -7.821073 15.999999
v -10.557724 -0.268908 15.999999
v 10.857659 -0.022754 15.999999
v 10.857659 -7.821073 -15.999999
v -10.557724 -8.067227 -15.999999
v 10.857659 -0.022754 -15.999999
v -10.557724 -0.268908 -15.999999

# 72 Texture Coordinates
vt 1.0 0.0
vt 0.0 0.0
vt 0.0 1.0
vt 1.0 0.0
vt 0.0 0.0
vt 0.0 1.0
vt 1.0 0.0
vt 0.0 0.0
vt 0.0 1.0
vt 1.0 0.0
vt 0.0 0.0
vt 0.0 1.0
vt 0.0 1.0
vt 0.0 0.0
vt 1.0 0.0
vt 0.0 1.0
vt 0.0 0.0
vt 1.0 0.0
vt 0.0 1.0
vt 0.0 0.0
vt 1.0 0.0
vt 0.0 1.0
vt 0.0 0.0
vt 1.0 0.0
vt 0.0 1.0
vt 0.0 0.0
vt 1.0 0.0
vt 0.0 1.0
vt 0.0 0.0
vt 1.0 0.0
vt 0.0 1.0
vt 0.0 0.0
vt 1.0 0.0
vt 0.0 1.0
vt 0.0 0.0
vt 1.0 0.0
vt 1.0 0.0
vt 0.0 0.0
vt 0.0 1.0
vt 1.0 0.0
vt 0.0 0.0
vt 0.0 1.0
vt 1.0 0.0
vt 0.0 0.0
vt 0.0 1.0
vt 1.0 0.0
vt 0.0 0.0
vt 0.0 1.0
vt 0.0 1.0
vt 0.0 0.0
vt 1.0 0.0
vt 0.0 1.0
vt 0.0 0.0
vt 1.0 0.0
vt 0.0 1.0
vt 0.0 0.0
vt 1.0 0.0
vt 0.0 1.0
vt 0.0 0.0
vt 1.0 0.0
vt 0.0 1.0
vt 0.0 0.0
vt 1.0 0.0
vt 0.0 1.0
vt 0.0 0.0
vt 1.0 0.0
vt 0.0 1.0
vt 0.0 0.0
vt 1.0 0.0
vt 0.0 1.0
vt 0.0 0.0
vt 1.0 0.0

# 72 Vertex Normals
vn 0.0 0.489648 0.87192
vn -0.005612 0.482549 0.875851
vn -0.005612 0.482549 0.875851
vn -0.005612 0.482549 0.875851
vn -0.011223 0.475403 0.879697
vn -0.005612 0.482549 0.875851
vn 0.0 0.435751 -0.900067
vn -0.005303 0.442512 -0.896747
vn -0.005303 0.442512 -0.896747
vn -0.005303 0.442512 -0.896747
vn -0.010605 0.449235 -0.893351
vn -0.005303 0.442512 -0.896747
vn -0.954977 0.296679 -0.0
vn -0.954977 0.296679 -0.0
vn -0.954977 0.296679 -0.0
vn -0.954977 0.296679 -0.0
vn -0.954977 0.296679 0.0
vn -0.954977 0.296679 -0.0
vn 0.949154 0.314812 0.0
vn 0.949154 0.314812 0.0
vn 0.949154 0.314812 0.0
vn 0.949154 0.314812 0.0
vn 0.949154 0.314812 0.0
vn 0.949154 0.314812 0.0
vn -0.0236 0.999722 0.0
vn -0.0236 0.999722 0.0
vn -0.0236 0.999722 0.0
vn -0.0236 0.999722 0.0
vn -0.0236 0.999722 0.0
vn -0.0236 0.999722 0.0
vn 0.0 -1.0 0.0
vn 0.0 -1.0 0.0
vn 0.0 -1.0 0.0
vn 0.0 -1.0 0.0
vn 0.0 -1.0 0.0
vn 0.0 -1.0 0.0
vn 0.0 0.0 1.0
vn 0.0 0.0 1.0
vn 0.0 0.0 1.0
vn 0.0 0.0 1.0
vn 0.0 0.0 1.0
vn 0.0 0.0 1.0
vn 0.0 0.0 -1.0
vn 0.0 0.0 -1.0
vn 0.0 0.0 -1.0
vn 0.0 0.0 -1.0
vn 0.0 0.0 -1.0
vn 0.0 0.0 -1.0
vn -1.0 0.0 0.0
vn -1.0 0.0 0.0
vn -1.0 0.0 0.0
vn -1.0 0.0 0.0
vn -1.0 0.0 0.0
vn -1.0 0.0 0.0
vn 1.0 0.0 0.0
vn 1.0 0.0 0.0
vn 1.0 0.0 0.0
vn 1.0 0.0 0.0
vn 1.0 0.0 0.0
vn 1.0 0.0 0.0
vn -0.011493 0.999934 0.0
vn -0.011493 0.999934 0.0
vn -0.011493 0.999934 0.0
vn -0.011493 0.999934 0.0
vn -0.011493 0.999934 0.0
vn -0.011493 0.999934 0.0
vn 0.011493 -0.999934 0.0
vn 0.011493 -0.999934 0.0
vn 0.011493 -0.999934 0.0
vn 0.011493 -0.999934 0.0
vn 0.011493 -0.999934 0.0
vn 0.011493 -0.999934 0.0

# 24 Ungrouped triangles

o ungrouped
g ungrouped

f 1/1/1 2/2/2 3/3/3
f 2/4/4 4/5/5 3/6/6
f 5/7/7 6/8/8 7/9/9
f 6/10/10 8/11/11 7/12/12
f 3/13/13 6/14/14 1/15/15
f 3/16/16 8/17/17 6/18/18
f 7/19/19 2/20/20 5/21/21
f 7/22/22 4/23/23 2/24/24
f 3/25/25 7/26/26 8/27/27
f 3/28/28 4/29/29 7/30/30
f 2/31/31 6/32/32 5/33/33
f 2/34/34 1/35/35 6/36/36
f 9/37/37 10/38/38 11/39/39
f 10/40/40 12/41/41 11/42/42
f 13/43/43 14/44/44 15/45/45
f 14/46/46 16/47/47 15/48/48
f 11/49/49 14/50/50 9/51/51
f 11/52/52 16/53/53 14/54/54
f 15/55/55 10/56/56 13/57/57
f 15/58/58 12/59/59 10/60/60
f 11/61/61 15/62/62 16/63/63
f 11/64/64 12/65/65 15/66/66
f 10/67/67 14/68/68 13/69/69
f 10/70/70 9/71/71 14/72/72
